<?xml version="1.0" standalone="no"?>
<!DOCTYPE svg PUBLIC "-//W3C//DTD SVG 20010904//EN"
 "http://www.w3.org/TR/2001/REC-SVG-20010904/DTD/svg10.dtd">
<svg version="1.0" xmlns="http://www.w3.org/2000/svg"
 width="120.000000pt" height="120.000000pt" viewBox="0 0 120.000000 120.000000"
 preserveAspectRatio="xMidYMid meet">
<metadata>
Created by potrace 1.11, written by Peter Selinger 2001-2013
</metadata>
<g transform="translate(0.000000,120.000000) scale(0.100000,-0.100000)"
fill="#000000" stroke="none">
<path d="M547 1180 c-7 -11 -17 -17 -20 -13 -4 3 -7 1 -7 -6 0 -7 -5 -9 -10
-6 -6 3 -17 -1 -26 -9 -9 -9 -20 -14 -25 -11 -5 4 -9 2 -9 -4 0 -5 -10 -13
-22 -17 -13 -3 -31 -13 -40 -22 -10 -8 -18 -11 -18 -6 0 5 -4 4 -8 -1 -4 -6
-34 -24 -67 -40 -33 -17 -62 -32 -65 -35 -3 -3 -32 -18 -65 -35 -33 -16 -66
-36 -73 -43 -8 -7 -18 -10 -23 -7 -5 4 -9 1 -9 -5 0 -6 -4 -9 -9 -6 -20 13
-29 -24 -26 -114 1 -52 3 -97 3 -100 3 -10 42 -9 42 0 0 6 10 6 23 2 26 -10
38 -9 55 1 6 5 12 4 12 -1 0 -6 9 -8 20 -5 11 3 20 10 20 15 0 5 4 7 9 4 11
-7 9 13 -3 33 -7 10 -6 12 4 6 10 -6 12 -4 7 8 -8 20 20 50 40 43 8 -3 12 -2
10 2 -3 4 27 23 67 42 39 19 74 39 78 45 4 5 8 6 8 2 0 -5 14 2 32 15 18 12
39 23 47 25 8 1 26 11 41 22 29 21 77 22 89 2 4 -6 18 -14 32 -16 13 -3 25 -9
27 -15 2 -6 8 -8 13 -4 5 3 9 0 9 -5 0 -6 9 -11 19 -11 11 0 21 -3 23 -8 4 -9
130 -73 141 -72 5 1 15 -7 23 -17 7 -10 14 -14 14 -10 0 4 9 0 19 -10 12 -12
19 -31 19 -51 -1 -18 2 -35 5 -38 8 -8 105 -9 113 -1 4 3 14 2 23 -3 36 -19
46 4 46 105 l1 95 -53 27 c-29 14 -53 30 -53 35 0 5 -5 6 -10 3 -5 -3 -10 -1
-10 6 0 7 -3 9 -7 6 -3 -4 -20 2 -38 13 -18 11 -35 17 -38 13 -4 -3 -7 1 -7
11 0 10 -5 14 -11 11 -6 -4 -17 1 -25 11 -9 11 -12 12 -8 4 7 -13 6 -13 -12 0
-10 8 -22 20 -26 25 -4 6 -8 6 -8 2 0 -9 -61 22 -71 36 -3 4 -16 9 -27 10 -12
1 -22 4 -22 8 0 3 -27 20 -60 36 -32 17 -57 32 -55 35 2 2 -9 5 -25 6 -19 1
-33 -4 -43 -18z"/>
<path d="M1140 575 c0 -6 -35 -9 -89 -8 l-90 2 3 -35 c2 -19 0 -34 -6 -34 -5
0 -7 -4 -4 -9 4 -5 1 -22 -6 -38 -6 -15 -10 -34 -9 -42 1 -7 -2 -10 -7 -7 -6
3 -13 -6 -16 -20 -6 -23 -116 -147 -116 -131 0 4 -9 -1 -21 -11 -18 -18 -72
-37 -91 -33 -5 0 -8 -3 -8 -7 0 -4 -16 -7 -35 -7 -19 1 -35 -2 -35 -7 0 -5 -9
-4 -20 2 -14 8 -20 8 -20 0 0 -6 -5 -8 -12 -3 -7 4 -22 8 -33 8 -11 0 -26 4
-32 8 -7 5 -22 10 -34 12 -48 9 -179 114 -171 138 1 4 -2 7 -8 7 -16 0 -58
103 -64 160 -2 14 -4 31 -4 38 -2 8 -27 12 -91 12 -110 0 -111 -2 -84 -125 9
-38 10 -43 13 -52 1 -5 2 -11 1 -15 0 -5 4 -8 10 -8 6 0 9 -6 6 -14 -3 -8 1
-20 9 -27 8 -7 13 -18 10 -26 -3 -7 1 -13 11 -13 9 0 13 -3 10 -7 -4 -3 3 -17
15 -30 12 -13 18 -23 13 -23 -7 0 82 -88 129 -127 25 -21 86 -53 101 -53 8 0
15 -5 15 -11 0 -5 4 -8 9 -4 5 3 13 0 16 -6 4 -5 13 -8 20 -5 7 2 21 -1 31 -8
28 -18 229 -22 218 -4 -6 10 -4 10 9 -1 13 -10 17 -10 17 -1 0 9 4 9 17 -1 9
-8 14 -9 10 -3 -4 6 17 17 53 28 33 10 60 23 60 28 0 5 6 8 12 6 7 -3 18 0 24
6 23 21 63 48 67 44 2 -1 20 16 40 39 19 23 42 49 51 58 9 9 13 21 10 27 -5 7
-2 8 5 4 8 -5 14 0 18 13 3 12 10 21 16 21 6 0 7 3 4 7 -4 3 0 15 10 25 9 10
13 18 8 18 -4 0 -1 7 6 17 8 9 13 17 11 17 -2 1 1 14 7 29 6 16 9 33 5 38 -3
5 -1 9 4 9 5 0 9 6 9 13 1 6 3 32 6 57 3 25 2 52 -3 60 -6 8 -10 11 -10 5z"/>
</g>
</svg>
